<?xml version="1.0" encoding="utf-8"?>
<!-- Generator: Adobe Illustrator 23.0.3, SVG Export Plug-In . SVG Version: 6.00 Build 0)  -->
<svg version="1.1" id="Layer_1" xmlns="http://www.w3.org/2000/svg" xmlns:xlink="http://www.w3.org/1999/xlink" x="0px" y="0px"
	 viewBox="0 0 16 16" style="enable-background:new 0 0 16 16;" xml:space="preserve">
<style type="text/css">
	.st0{fill:#C1E6FF;}
</style>
<path class="st0" d="M8.1,2.2c0.8-0.8,2-0.8,2.8,0l3.9,3.9c0.8,0.8,0.8,2,0,2.8l-5.5,5.5C8.9,14.8,8.4,15,7.9,15H5.1
	c-0.5,0-1-0.2-1.4-0.6l-2.5-2.5c-0.8-0.8-0.8-2,0-2.8L8.1,2.2L8.1,2.2z M8.7,13.5L3.5,8.3L1.9,9.8c-0.4,0.4-0.4,1,0,1.4l2.5,2.5
	C4.6,13.9,4.9,14,5.1,14h2.8c0.3,0,0.5-0.1,0.7-0.3L8.7,13.5L8.7,13.5z"/>
</svg>
